<?xml version="1.0" encoding="UTF-8" standalone="no"?><!DOCTYPE svg PUBLIC "-//W3C//DTD SVG 1.1//EN" "http://www.w3.org/Graphics/SVG/1.1/DTD/svg11.dtd"><svg width="100%" height="100%" viewBox="0 0 2000 2000" version="1.1" xmlns="http://www.w3.org/2000/svg" xmlns:xlink="http://www.w3.org/1999/xlink" xml:space="preserve" xmlns:serif="http://www.serif.com/" style="fill-rule:evenodd;clip-rule:evenodd;stroke-linecap:round;stroke-linejoin:round;stroke-miterlimit:1.5;"><path d="M672.2,480c-42.884,0 -77.7,34.816 -77.7,77.7l0,942.6c0,42.884 34.816,77.7 77.7,77.7l621.6,0c42.884,0 77.7,-34.816 77.7,-77.7l0,-942.6c0,-42.884 -34.816,-77.7 -77.7,-77.7l-621.6,0Z" style="fill:#bb2400;stroke:#000;stroke-opacity:0;stroke-width:17.48px;"/><path d="M751,689c-32.011,0 -58,25.989 -58,58l0,831l580,0l0,-831c0,-32.011 -25.989,-58 -58,-58l-464,0Z" style="fill:#932400;stroke:#000;stroke-opacity:0;stroke-width:17.48px;"/><circle cx="1217.25" cy="1126.25" r="14.25" style="fill:#742400;stroke:#000;stroke-opacity:0;stroke-width:17.48px;"/><path d="M1217.25,1125.08l17,30.842l-34,0l17,-30.842Z" style="fill:#742400;stroke:#000;stroke-opacity:0;stroke-width:17.48px;"/></svg>